<?xml version="1.0" encoding="UTF-8" standalone="no"?>
<!-- Generator: Adobe Illustrator 19.0.0, SVG Export Plug-In . SVG Version: 6.00 Build 0)  -->

<svg
   version="1.1"
   id="Layer_1"
   x="0px"
   y="0px"
   viewBox="0 0 2581.0302 1539.8522"
   xml:space="preserve"
   inkscape:version="1.1 (c68e22c387, 2021-05-23)"
   sodipodi:docname="flow.svg"
   width="2581.0303"
   height="1539.8522"
   inkscape:export-filename="E:\PROJECT\SITE\PERSONAL\FLOW\LOGO\flow.png"
   inkscape:export-xdpi="90"
   inkscape:export-ydpi="90"
   xmlns:inkscape="http://www.inkscape.org/namespaces/inkscape"
   xmlns:sodipodi="http://sodipodi.sourceforge.net/DTD/sodipodi-0.dtd"
   xmlns="http://www.w3.org/2000/svg"
   xmlns:svg="http://www.w3.org/2000/svg"
   xmlns:rdf="http://www.w3.org/1999/02/22-rdf-syntax-ns#"
   xmlns:cc="http://creativecommons.org/ns#"
   xmlns:dc="http://purl.org/dc/elements/1.1/"><metadata
   id="metadata43"><rdf:RDF><cc:Work
       rdf:about=""><dc:format>image/svg+xml</dc:format><dc:type
         rdf:resource="http://purl.org/dc/dcmitype/StillImage" /></cc:Work></rdf:RDF></metadata><defs
   id="defs41"><clipPath
     clipPathUnits="userSpaceOnUse"
     id="clipPath24"><path
       d="m 11794.4,5026.5 c 0,0 77.1,-1387.4 1812.6,-1423 0,0 -1381.8,81.8 -1812.6,1423 z"
       id="path22" /></clipPath><linearGradient
     x1="0"
     y1="0"
     x2="1"
     y2="0"
     gradientUnits="userSpaceOnUse"
     gradientTransform="matrix(1102.93,-97.0125,-97.0125,-1102.93,15287.8,4083.9)"
     spreadMethod="pad"
     id="linearGradient32"><stop
       style="stop-opacity:1;stop-color:#00adef"
       offset="0"
       id="stop26" /><stop
       style="stop-opacity:1;stop-color:#00adef"
       offset="0.295699"
       id="stop28" /><stop
       style="stop-opacity:1;stop-color:#2c3892"
       offset="1"
       id="stop30" /></linearGradient><clipPath
     clipPathUnits="userSpaceOnUse"
     id="clipPath42"><path
       d="m 11763.2,5826.6 c 0,0 -528.9,-858.3 348.5,-1839 0,0 -676.7,812.2 -348.5,1839 z"
       id="path40" /></clipPath><linearGradient
     x1="0"
     y1="0"
     x2="1"
     y2="0"
     gradientUnits="userSpaceOnUse"
     gradientTransform="matrix(527.16,-666.996,-501.795,-594.804,13172.5,3340.5)"
     spreadMethod="pad"
     id="linearGradient50"><stop
       style="stop-opacity:1;stop-color:#00adef"
       offset="0"
       id="stop44" /><stop
       style="stop-opacity:1;stop-color:#00adef"
       offset="0.295699"
       id="stop46" /><stop
       style="stop-opacity:1;stop-color:#2c3892"
       offset="1"
       id="stop48" /></linearGradient><clipPath
     clipPathUnits="userSpaceOnUse"
     id="clipPath72"><path
       d="m 2588.92,5926.2 c 0,0 77.06,-1387.4 1812.53,-1423 0,0 -1381.79,81.8 -1812.53,1423 z"
       id="path70" /></clipPath><linearGradient
     x1="0"
     y1="0"
     x2="1"
     y2="0"
     gradientUnits="userSpaceOnUse"
     gradientTransform="matrix(1102.93,-97.0125,-97.0125,-1102.93,6082.28,4983.6)"
     spreadMethod="pad"
     id="linearGradient80"><stop
       style="stop-opacity:1;stop-color:#00adef"
       offset="0"
       id="stop74" /><stop
       style="stop-opacity:1;stop-color:#00adef"
       offset="0.295699"
       id="stop76" /><stop
       style="stop-opacity:1;stop-color:#2c3892"
       offset="1"
       id="stop78" /></linearGradient><clipPath
     clipPathUnits="userSpaceOnUse"
     id="clipPath90"><path
       d="m 2557.65,6726.3 c 0,0 -528.9,-858.3 348.55,-1839 0,0 -676.73,812.3 -348.55,1839 z"
       id="path88" /></clipPath><linearGradient
     x1="0"
     y1="0"
     x2="1"
     y2="0"
     gradientUnits="userSpaceOnUse"
     gradientTransform="matrix(527.16,-666.996,-501.795,-594.804,3967.03,4240.2)"
     spreadMethod="pad"
     id="linearGradient98"><stop
       style="stop-opacity:1;stop-color:#00adef"
       offset="0"
       id="stop92" /><stop
       style="stop-opacity:1;stop-color:#00adef"
       offset="0.295699"
       id="stop94" /><stop
       style="stop-opacity:1;stop-color:#2c3892"
       offset="1"
       id="stop96" /></linearGradient><clipPath
     clipPathUnits="userSpaceOnUse"
     id="clipPath110"><path
       d="m 12268.9,14695.1 c 0,0 488.2,-2310.6 3412.5,-1921.6 0,0 -2342.2,-219.9 -3412.5,1921.6 z"
       id="path108" /></clipPath><linearGradient
     x1="0"
     y1="0"
     x2="1"
     y2="0"
     gradientUnits="userSpaceOnUse"
     gradientTransform="matrix(1877.7,122.261,122.261,-1877.7,18380.5,14015.2)"
     spreadMethod="pad"
     id="linearGradient118"><stop
       style="stop-opacity:1;stop-color:#00adef"
       offset="0"
       id="stop112" /><stop
       style="stop-opacity:1;stop-color:#00adef"
       offset="0.295699"
       id="stop114" /><stop
       style="stop-opacity:1;stop-color:#2c3892"
       offset="1"
       id="stop116" /></linearGradient><clipPath
     clipPathUnits="userSpaceOnUse"
     id="clipPath128"><path
       d="m 15815.2,16419 c -93.9,4.2 -182.4,2.3 -266.1,-4.9 -314.7,-27.2 -559,-128.8 -745.9,-255.2 -405.3,-274.1 -540.8,-664.8 -540.8,-664.8 113.4,159.3 245.2,290.2 385,397.8 252.9,194.4 532.5,312.5 778.9,384.3 115.1,33.6 222.9,57 317.5,73.3 88.4,15.3 165.2,24.4 225.2,29.9 9.2,8.1 18.3,16.2 27.6,24.2 -62.5,7.7 -123,12.8 -181.4,15.4 z"
       id="path126" /></clipPath><linearGradient
     x1="0"
     y1="0"
     x2="1"
     y2="0"
     gradientUnits="userSpaceOnUse"
     gradientTransform="matrix(45643.7,12448.3,12448.3,-45643.7,-4296.91,10731.7)"
     spreadMethod="pad"
     id="linearGradient134"><stop
       style="stop-opacity:1;stop-color:#00adef"
       offset="0"
       id="stop130" /><stop
       style="stop-opacity:1;stop-color:#2c3892"
       offset="1"
       id="stop132" /></linearGradient><clipPath
     clipPathUnits="userSpaceOnUse"
     id="clipPath144"><path
       d="m 14060.1,14010 c -134.5,277.1 -200,602.2 -180.6,928.5 27.2,456.4 219.9,1043.4 940.1,1403.4 -913.5,-342 -1143.8,-1002.5 -1173.7,-1504.7 -19.4,-326.4 46.1,-651.5 180.6,-928.6 833.6,-1717.7 2656.1,-937.3 3006,-767.5 -617.9,-240.7 -2058.1,-602.9 -2772.4,868.9 z"
       id="path142" /></clipPath><linearGradient
     x1="0"
     y1="0"
     x2="1"
     y2="0"
     gradientUnits="userSpaceOnUse"
     gradientTransform="matrix(6161.75,1680.48,1680.48,-6161.75,13455.7,14066)"
     spreadMethod="pad"
     id="linearGradient150"><stop
       style="stop-opacity:1;stop-color:#00adef"
       offset="0"
       id="stop146" /><stop
       style="stop-opacity:1;stop-color:#2c3892"
       offset="1"
       id="stop148" /></linearGradient><clipPath
     clipPathUnits="userSpaceOnUse"
     id="clipPath160"><path
       d="m 15129.5,15957.6 c 0,0 496.1,418.4 1103.8,-95.2 0,0 -562.1,334.3 -1103.8,95.2 z"
       id="path158" /></clipPath><linearGradient
     x1="0"
     y1="0"
     x2="1"
     y2="0"
     gradientUnits="userSpaceOnUse"
     gradientTransform="matrix(3323.64,-920.891,-920.891,-3323.64,14686.1,16242.3)"
     spreadMethod="pad"
     id="linearGradient166"><stop
       style="stop-opacity:1;stop-color:#00adef"
       offset="0"
       id="stop162" /><stop
       style="stop-opacity:1;stop-color:#2c3892"
       offset="1"
       id="stop164" /></linearGradient><clipPath
     clipPathUnits="userSpaceOnUse"
     id="clipPath176"><path
       d="m 3295.49,13753.6 c 1451.93,-1428.9 3276.78,-606.3 3276.78,-606.3 -2246.89,-1119.2 -3276.78,606.3 -3276.78,606.3 z m -290.32,365.3 c 430.74,-1341.3 1812.53,-1423.1 1812.53,-1423.1 -1735.47,35.6 -1812.53,1423.1 -1812.53,1423.1 z M 2973.9,14919 C 2645.72,13892.2 3322.45,13079.9 3322.45,13079.9 2445,14060.6 2973.9,14919 2973.9,14919 Z m 4653.29,-370.1 c -442.85,-84.5 -987.83,-283.3 -1596.4,-704.2 0,0 -1999.71,-1408.2 -2707.57,390.8 -0.51,1.3 -0.77,1.9 -0.77,1.9 0.26,-0.6 0.52,-1.3 0.77,-1.9 25.21,-62.5 675.94,-1612.1 2624.78,-84.1 655.72,514.1 1201.94,714.2 1635.44,756.9 -51.73,229.6 -135.58,447 -246.61,647.3 522,341.4 1173.81,482.5 1173.81,482.5 -511.71,46.1 -1002.86,-196.2 -1254.21,-347.8 -0.39,0.6 -0.78,1.3 -1.17,1.9 -356.8,-210.9 -754.06,-531.5 -1150.74,-1018.5 0,0 -1528.42,-1909.4 -2709.28,-378.8 -0.85,1.1 -1.28,1.7 -1.28,1.7 0.43,-0.6 0.85,-1.1 1.28,-1.7 41.63,-53 1098.17,-1360.1 2544.36,650.2 380.61,529.1 750.35,855 1086.94,1049.3 -450.29,508.5 -1108.07,829.1 -1840.74,829.1 -1357.39,0 -2457.77,-1100.4 -2457.77,-2457.8 0,-1357.3 1100.38,-2457.7 2457.77,-2457.7 1357.39,0 2457.77,1100.4 2457.77,2457.7 0,14.9 -0.15,29.8 -0.42,44.7 433.05,118.4 814.79,137.4 814.79,137.4 -285.69,74 -580.16,53 -830.75,1.1 z"
       id="path174" /></clipPath><linearGradient
     x1="0"
     y1="0"
     x2="1"
     y2="0"
     gradientUnits="userSpaceOnUse"
     gradientTransform="matrix(5782.61,0,0,-5782.61,2728.03,14365.7)"
     spreadMethod="pad"
     id="linearGradient184"><stop
       style="stop-opacity:1;stop-color:#00adef"
       offset="0"
       id="stop178" /><stop
       style="stop-opacity:1;stop-color:#00adef"
       offset="0.295699"
       id="stop180" /><stop
       style="stop-opacity:1;stop-color:#2c3892"
       offset="1"
       id="stop182" /></linearGradient><clipPath
     clipPathUnits="userSpaceOnUse"
     id="clipPath24-4"><path
       d="m 11794.4,5026.5 c 0,0 77.1,-1387.4 1812.6,-1423 0,0 -1381.8,81.8 -1812.6,1423 z"
       id="path22-6" /></clipPath><clipPath
     clipPathUnits="userSpaceOnUse"
     id="clipPath42-5"><path
       d="m 11763.2,5826.6 c 0,0 -528.9,-858.3 348.5,-1839 0,0 -676.7,812.2 -348.5,1839 z"
       id="path40-5" /></clipPath><clipPath
     clipPathUnits="userSpaceOnUse"
     id="clipPath72-7"><path
       d="m 2588.92,5926.2 c 0,0 77.06,-1387.4 1812.53,-1423 0,0 -1381.79,81.8 -1812.53,1423 z"
       id="path70-3" /></clipPath><clipPath
     clipPathUnits="userSpaceOnUse"
     id="clipPath90-9"><path
       d="m 2557.65,6726.3 c 0,0 -528.9,-858.3 348.55,-1839 0,0 -676.73,812.3 -348.55,1839 z"
       id="path88-6" /></clipPath><clipPath
     clipPathUnits="userSpaceOnUse"
     id="clipPath110-5"><path
       d="m 12268.9,14695.1 c 0,0 488.2,-2310.6 3412.5,-1921.6 0,0 -2342.2,-219.9 -3412.5,1921.6 z"
       id="path108-9" /></clipPath><clipPath
     clipPathUnits="userSpaceOnUse"
     id="clipPath128-9"><path
       d="m 15815.2,16419 c -93.9,4.2 -182.4,2.3 -266.1,-4.9 -314.7,-27.2 -559,-128.8 -745.9,-255.2 -405.3,-274.1 -540.8,-664.8 -540.8,-664.8 113.4,159.3 245.2,290.2 385,397.8 252.9,194.4 532.5,312.5 778.9,384.3 115.1,33.6 222.9,57 317.5,73.3 88.4,15.3 165.2,24.4 225.2,29.9 9.2,8.1 18.3,16.2 27.6,24.2 -62.5,7.7 -123,12.8 -181.4,15.4 z"
       id="path126-1" /></clipPath><clipPath
     clipPathUnits="userSpaceOnUse"
     id="clipPath144-7"><path
       d="m 14060.1,14010 c -134.5,277.1 -200,602.2 -180.6,928.5 27.2,456.4 219.9,1043.4 940.1,1403.4 -913.5,-342 -1143.8,-1002.5 -1173.7,-1504.7 -19.4,-326.4 46.1,-651.5 180.6,-928.6 833.6,-1717.7 2656.1,-937.3 3006,-767.5 -617.9,-240.7 -2058.1,-602.9 -2772.4,868.9 z"
       id="path142-4" /></clipPath><clipPath
     clipPathUnits="userSpaceOnUse"
     id="clipPath160-0"><path
       d="m 15129.5,15957.6 c 0,0 496.1,418.4 1103.8,-95.2 0,0 -562.1,334.3 -1103.8,95.2 z"
       id="path158-9" /></clipPath><clipPath
     clipPathUnits="userSpaceOnUse"
     id="clipPath176-8"><path
       d="m 3295.49,13753.6 c 1451.93,-1428.9 3276.78,-606.3 3276.78,-606.3 -2246.89,-1119.2 -3276.78,606.3 -3276.78,606.3 z m -290.32,365.3 c 430.74,-1341.3 1812.53,-1423.1 1812.53,-1423.1 -1735.47,35.6 -1812.53,1423.1 -1812.53,1423.1 z M 2973.9,14919 C 2645.72,13892.2 3322.45,13079.9 3322.45,13079.9 2445,14060.6 2973.9,14919 2973.9,14919 Z m 4653.29,-370.1 c -442.85,-84.5 -987.83,-283.3 -1596.4,-704.2 0,0 -1999.71,-1408.2 -2707.57,390.8 -0.51,1.3 -0.77,1.9 -0.77,1.9 0.26,-0.6 0.52,-1.3 0.77,-1.9 25.21,-62.5 675.94,-1612.1 2624.78,-84.1 655.72,514.1 1201.94,714.2 1635.44,756.9 -51.73,229.6 -135.58,447 -246.61,647.3 522,341.4 1173.81,482.5 1173.81,482.5 -511.71,46.1 -1002.86,-196.2 -1254.21,-347.8 -0.39,0.6 -0.78,1.3 -1.17,1.9 -356.8,-210.9 -754.06,-531.5 -1150.74,-1018.5 0,0 -1528.42,-1909.4 -2709.28,-378.8 -0.85,1.1 -1.28,1.7 -1.28,1.7 0.43,-0.6 0.85,-1.1 1.28,-1.7 41.63,-53 1098.17,-1360.1 2544.36,650.2 380.61,529.1 750.35,855 1086.94,1049.3 -450.29,508.5 -1108.07,829.1 -1840.74,829.1 -1357.39,0 -2457.77,-1100.4 -2457.77,-2457.8 0,-1357.3 1100.38,-2457.7 2457.77,-2457.7 1357.39,0 2457.77,1100.4 2457.77,2457.7 0,14.9 -0.15,29.8 -0.42,44.7 433.05,118.4 814.79,137.4 814.79,137.4 -285.69,74 -580.16,53 -830.75,1.1 z"
       id="path174-2" /></clipPath><linearGradient
     x1="0"
     y1="0"
     x2="1"
     y2="0"
     gradientUnits="userSpaceOnUse"
     gradientTransform="matrix(5782.61,0,0,-5782.61,2728.03,14365.7)"
     spreadMethod="pad"
     id="linearGradient184-3"><stop
       style="stop-opacity:1;stop-color:#00adef"
       offset="0"
       id="stop178-5" /><stop
       style="stop-opacity:1;stop-color:#00adef"
       offset="0.295699"
       id="stop180-0" /><stop
       style="stop-opacity:1;stop-color:#2c3892"
       offset="1"
       id="stop182-2" /></linearGradient></defs><sodipodi:namedview
   pagecolor="#ffffff"
   bordercolor="#666666"
   borderopacity="1"
   objecttolerance="10"
   gridtolerance="10"
   guidetolerance="10"
   inkscape:pageopacity="0"
   inkscape:pageshadow="2"
   inkscape:window-width="3840"
   inkscape:window-height="2126"
   id="namedview39"
   showgrid="false"
   inkscape:zoom="0.35355339"
   inkscape:cx="-265.87215"
   inkscape:cy="1032.3759"
   inkscape:window-x="-11"
   inkscape:window-y="-11"
   inkscape:window-maximized="1"
   inkscape:current-layer="Layer_1"
   fit-margin-top="100"
   fit-margin-left="100"
   fit-margin-right="100"
   fit-margin-bottom="100"
   inkscape:pagecheckerboard="0" /><g
   id="g9"
   transform="translate(-255.07578,1935.8793)"
   style="stroke:#4ba6c2;stroke-opacity:1" /><g
   id="g11"
   transform="translate(-255.07578,1935.8793)"
   style="stroke:#4ba6c2;stroke-opacity:1" /><g
   id="g13"
   transform="translate(-255.07578,1935.8793)"
   style="stroke:#4ba6c2;stroke-opacity:1" /><g
   id="g15"
   transform="translate(-255.07578,1935.8793)"
   style="stroke:#4ba6c2;stroke-opacity:1" /><g
   id="g17"
   transform="translate(-255.07578,1935.8793)"
   style="stroke:#4ba6c2;stroke-opacity:1" /><g
   id="g19"
   transform="translate(-255.07578,1935.8793)"
   style="stroke:#4ba6c2;stroke-opacity:1" /><g
   id="g21"
   transform="translate(-255.07578,1935.8793)"
   style="stroke:#4ba6c2;stroke-opacity:1" /><g
   id="g23"
   transform="translate(-255.07578,1935.8793)"
   style="stroke:#4ba6c2;stroke-opacity:1" /><g
   id="g25"
   transform="translate(-255.07578,1935.8793)"
   style="stroke:#4ba6c2;stroke-opacity:1" /><g
   id="g27"
   transform="translate(-255.07578,1935.8793)"
   style="stroke:#4ba6c2;stroke-opacity:1" /><g
   id="g29"
   transform="translate(-255.07578,1935.8793)"
   style="stroke:#4ba6c2;stroke-opacity:1" /><g
   id="g31"
   transform="translate(-255.07578,1935.8793)"
   style="stroke:#4ba6c2;stroke-opacity:1" /><g
   id="g33"
   transform="translate(-255.07578,1935.8793)"
   style="stroke:#4ba6c2;stroke-opacity:1" /><g
   id="g35"
   transform="translate(-255.07578,1935.8793)"
   style="stroke:#4ba6c2;stroke-opacity:1" /><g
   id="g37"
   transform="translate(-255.07578,1935.8793)"
   style="stroke:#4ba6c2;stroke-opacity:1" /><text
   xml:space="preserve"
   style="font-style:normal;font-weight:normal;font-size:56.1816px;line-height:125%;font-family:sans-serif;letter-spacing:0px;word-spacing:0px;fill:#00a4e2;fill-opacity:1;stroke:#3b92ad;stroke-width:1.40454px;stroke-linecap:butt;stroke-linejoin:miter;stroke-opacity:1"
   x="137.06685"
   y="1421.576"
   id="text4189"><tspan
     sodipodi:role="line"
     id="tspan4191"
     x="137.06685"
     y="1421.576"
     style="font-style:normal;font-variant:normal;font-weight:normal;font-stretch:normal;font-size:877.838px;font-family:Candara;-inkscape-font-specification:Candara;fill:#00a4e2;fill-opacity:1;stroke:#3b92ad;stroke-width:1.40454px;stroke-opacity:1">FLOW</tspan></text>
<g
   id="g20660"
   transform="matrix(2.6388504,-0.40428578,0.48187221,2.213968,6318.2997,-2131.542)"><path
     d="m -1612.7981,868.82665 c 0,0 -23.728,-234.02666 -334.4987,-103.89333 -294.2493,123.21333 -380.9706,-54.36 -380.9706,-54.36 0,0 134.2853,98.42666 381.168,12.01333 0,0 307.0933,-110.41333 334.3013,146.24"
     style="fill:#29538e;fill-opacity:1;fill-rule:nonzero;stroke:none;stroke-width:0.133333"
     id="path54" /><path
     d="m -2407.4367,715.86665 c 0,0 137.3186,230.06666 436.9039,80.84 0,0 -243.3133,109.68 -436.9039,-80.84"
     style="fill:#3871c1;fill-opacity:1;fill-rule:nonzero;stroke:none;stroke-width:0.133333"
     id="path56" /><g
     id="g66"
     transform="matrix(0.13333333,0,0,-0.13333333,-2791.3354,1457.3333)"><g
       id="g68"
       clip-path="url(#clipPath72-7)"><path
         d="m 2588.92,5926.2 c 0,0 77.06,-1387.4 1812.53,-1423 0,0 -1381.79,81.8 -1812.53,1423"
         style="fill:url(#linearGradient80);fill-opacity:1;fill-rule:nonzero;stroke:none"
         id="path82" /></g></g><g
     id="g84"
     transform="matrix(0.13333333,0,0,-0.13333333,-2791.3354,1457.3333)"><g
       id="g86"
       clip-path="url(#clipPath90-9)"><path
         d="m 2557.65,6726.3 c 0,0 -528.9,-858.3 348.55,-1839 0,0 -676.73,812.3 -348.55,1839"
         style="fill:url(#linearGradient98);fill-opacity:1;fill-rule:nonzero;stroke:none"
         id="path100" /></g></g></g></svg>
